<svg width="48" height="48" viewBox="0 0 48 48" fill="none" xmlns="http://www.w3.org/2000/svg">
<path d="M8.69995 36.9002L8.95495 36.5447L20.985 13.7237L21.0105 13.4822L15.708 3.52215C15.6109 3.34002 15.459 3.19302 15.2738 3.10195C15.0886 3.01088 14.8794 2.98035 14.6759 3.01469C14.4724 3.04902 14.2848 3.14648 14.1397 3.29327C13.9947 3.44006 13.8994 3.62875 13.8675 3.83265L8.69995 36.9002Z" fill="#FFC24A"/>
<path d="M8.8501 36.6303L9.0421 36.2553L20.9476 13.6713L15.6586 3.67227C15.5714 3.49838 15.4302 3.35743 15.2561 3.27054C15.0821 3.18365 14.8845 3.1555 14.6931 3.1903C14.5017 3.2251 14.3268 3.32098 14.1944 3.46358C14.0621 3.60617 13.9795 3.78781 13.9591 3.98127L8.8501 36.6303Z" fill="#FFA712"/>
<path d="M24.8759 21.0153L28.8239 16.9653L24.8744 9.43381C24.7875 9.27172 24.6583 9.13624 24.5004 9.04179C24.3426 8.94734 24.1621 8.89746 23.9782 8.89746C23.7943 8.89746 23.6138 8.94734 23.4559 9.04179C23.2981 9.13624 23.1689 9.27172 23.0819 9.43381L20.9714 13.4568V13.8003L24.8759 21.0153Z" fill="#F4BD62"/>
<path d="M24.8055 20.8498L28.644 16.9198L24.8055 9.59984C24.7427 9.44139 24.6354 9.3045 24.4965 9.20567C24.3576 9.10684 24.1931 9.05029 24.0228 9.04284C23.8525 9.03539 23.6837 9.07735 23.5368 9.16367C23.3898 9.24999 23.2709 9.37699 23.1945 9.52934L21.0735 13.6228L21.0105 13.8313L24.8055 20.8498Z" fill="#FFA50E"/>
<path d="M8.70288 36.9011L8.81838 36.7841L9.23688 36.6146L24.6269 21.2816L24.8219 20.7506L20.9834 13.4336L8.70288 36.9011Z" fill="#F6820C"/>
<path d="M25.368 44.6345L39.3 36.866L35.3189 12.3695C35.2904 12.1968 35.2148 12.0353 35.1005 11.9027C34.9862 11.7702 34.8376 11.6717 34.671 11.6181C34.5044 11.5644 34.3262 11.5578 34.1561 11.5988C33.9859 11.6398 33.8304 11.7269 33.7065 11.8505L8.69995 36.9005L22.5495 44.633C22.98 44.8732 23.4649 44.9994 23.958 44.9994C24.451 44.9994 24.9359 44.8732 25.3664 44.633" fill="#FDE068"/>
<path d="M39.1726 36.8007L35.2246 12.4887C35.2176 12.3236 35.1618 12.1642 35.0642 12.0307C34.9666 11.8973 34.8316 11.7958 34.6763 11.7391C34.5211 11.6824 34.3524 11.6731 34.1918 11.7123C34.0312 11.7515 33.8858 11.8374 33.7741 11.9592L8.8501 36.8532L22.5466 44.5032C22.9737 44.7415 23.4547 44.8666 23.9438 44.8666C24.433 44.8666 24.914 44.7415 25.3411 44.5032L39.1726 36.8007Z" fill="#FCCA3F"/>
<path d="M25.368 44.3998C24.9374 44.64 24.4525 44.7662 23.9595 44.7662C23.4664 44.7662 22.9815 44.64 22.551 44.3998L8.81395 36.7828L8.69995 36.8998L22.5495 44.6323C22.98 44.8725 23.4649 44.9987 23.958 44.9987C24.451 44.9987 24.9359 44.8725 25.3664 44.6323L39.3 36.8653L39.2654 36.6553L25.368 44.3998Z" fill="#EEAB37"/>
</svg>
