<svg width="48" height="48" viewBox="0 0 48 48" fill="none" xmlns="http://www.w3.org/2000/svg">
<path d="M42.6601 25.8199C42.8401 28.9199 41.4201 31.8999 38.8801 33.7199L40.4201 36.6999C40.8801 37.5999 40.9401 38.6599 40.5401 39.5999C40.1601 40.5399 39.3801 41.2799 38.4201 41.5999L36.8401 42.0999C36.1822 42.3215 35.472 42.3348 34.8062 42.138C34.1405 41.9411 33.5517 41.5437 33.1201 40.9999L28.8801 35.9999C27.1001 35.6999 25.4201 34.9399 24.0001 33.7999C23.0001 34.0999 22.0001 34.2599 21.0001 34.2599C19.2401 34.2599 17.4801 33.7199 16.0001 32.6799C14.9401 32.9999 13.8601 33.1399 12.7601 33.1199C11.1801 33.1399 9.62011 32.8199 8.16011 32.2199C6.75479 31.5929 5.55399 30.5835 4.69467 29.3069C3.83536 28.0303 3.35213 26.5379 3.30011 24.9999C3.14011 23.5599 3.38011 22.0999 4.00011 20.7799C3.42011 19.2799 3.36011 17.6399 3.86011 16.1199C4.60011 14.2199 6.00011 12.6399 7.74011 11.6399C8.90011 8.2599 12.1601 5.9999 15.7401 6.2399C18.9401 3.2399 23.8401 2.9199 27.4001 5.4999C28.2401 5.2799 29.1201 5.1599 30.0001 5.1599C32.7201 5.0999 35.3001 6.2999 37.0001 8.4399C41.0801 9.4999 44.0001 13.1399 44.1601 17.3799C44.2601 19.5999 43.6601 21.7799 42.4401 23.6399C42.5801 24.3599 42.6601 25.0799 42.6601 25.8199ZM32.6601 22.9999C33.8001 23.1399 34.7001 23.9999 34.7001 25.1399C34.7001 25.6703 34.4894 26.179 34.1143 26.5541C33.7393 26.9292 33.2305 27.1399 32.7001 27.1399H31.4401C30.8001 28.9399 29.6801 30.5199 28.2001 31.7199C28.7001 31.8999 29.2201 31.9999 29.7401 32.1399C40.0001 31.9999 38.8001 25.7399 38.8001 25.6399C38.747 24.2661 38.1504 22.9696 37.1415 22.0357C36.1325 21.1018 34.7939 20.6069 33.4201 20.6599C32.8897 20.6599 32.381 20.4492 32.0059 20.0741C31.6308 19.699 31.4201 19.1903 31.4201 18.6599C31.4201 18.1295 31.6308 17.6208 32.0059 17.2457C32.381 16.8706 32.8897 16.6599 33.4201 16.6599C35.8801 16.7199 38.2401 17.6399 40.0801 19.2599C40.1801 18.6799 40.2401 18.0799 40.2401 17.4799C40.1201 14.9999 39.0001 12.8399 34.5001 12.4199C32.0001 6.4999 25.7001 9.7799 25.7001 11.6199C25.6401 12.0799 26.1201 13.0599 26.2001 13.1199C26.7305 13.1199 27.2393 13.3306 27.6143 13.7057C27.9894 14.0808 28.2001 14.5895 28.2001 15.1199C28.2001 16.2199 27.3001 17.1199 26.2001 17.1199C25.1401 17.0799 24.1401 16.6799 23.3401 15.9999C22.3801 16.6199 21.2801 16.9999 20.1401 17.1199C19.0001 17.2199 18.0601 16.4199 18.0001 15.3199C17.9633 15.0586 17.9802 14.7926 18.0499 14.5381C18.1196 14.2837 18.2406 14.0461 18.4054 13.8401C18.5702 13.6341 18.7754 13.4639 19.0084 13.3401C19.2413 13.2162 19.4971 13.1413 19.7601 13.1199C20.0801 13.0799 21.6401 12.8399 21.6401 11.5799C21.6401 10.2599 22.1401 8.9999 23.0001 7.9999C21.1601 7.4999 19.1801 8.1599 17.1801 10.5799C13.5001 9.9999 12.0001 10.4999 10.9001 14.3999C9.00011 15.3399 8.00011 15.9999 7.56011 17.9999C9.72011 17.5599 11.9401 17.7399 14.0001 18.4999C15.0001 18.8799 15.5601 19.9999 15.1801 21.0799C14.8001 22.1199 13.6401 22.6399 12.6001 22.2599C11.1401 21.6199 9.50011 21.5799 8.00011 22.1399C7.36011 22.6799 7.36011 23.7999 7.36011 24.6799C7.36011 26.1599 8.10011 27.5399 9.36011 28.3399C10.4201 28.8799 11.6001 29.1599 12.7801 29.1399C12.4801 28.6199 12.2201 28.0799 12.0001 27.5199C11.8427 27.006 11.8906 26.4512 12.1339 25.972C12.3772 25.4927 12.7968 25.1265 13.3046 24.9504C13.8123 24.7742 14.3686 24.8018 14.8564 25.0274C15.3442 25.253 15.7255 25.6589 15.9201 26.1599C16.7201 28.4399 18.7601 29.9999 21.1601 30.2599C23.9001 30.1199 26.3401 28.4999 27.5401 25.9999C28.0001 23.2399 30.2201 22.9999 32.6601 22.9999ZM36.6601 37.9399L35.4201 35.3399L34.0001 35.6599L36.0001 38.1599L36.6601 37.9399ZM27.3601 20.7199C27.3775 20.209 27.1986 19.7108 26.8601 19.3277C26.5216 18.9446 26.0493 18.7056 25.5401 18.6599C24.1201 18.5799 22.7401 19.0599 21.6801 19.9999C20.5401 21.1599 19.9401 22.7599 20.0001 24.3799C20.0001 24.9103 20.2108 25.419 20.5859 25.7941C20.961 26.1692 21.4697 26.3799 22.0001 26.3799C23.1401 26.3799 24.0001 25.4799 24.0001 24.3799C24.0001 23.8399 24.1401 23.2999 24.4601 22.8599C24.7001 22.6599 25.0001 22.5599 25.3201 22.5599C26.4201 22.6199 27.3601 21.7999 27.3601 20.7199Z" fill="#FF9999"/>
</svg>
