<svg width="48" height="48" viewBox="0 0 48 48" fill="none" xmlns="http://www.w3.org/2000/svg">
<path d="M24 35.0471C35.598 35.0471 45 30.101 45 23.9996C45 17.8983 35.598 12.9521 24 12.9521C12.402 12.9521 3 17.8983 3 23.9996C3 30.101 12.402 35.0471 24 35.0471Z" fill="url(#paint0_radial_644_6)"/>
<path d="M24.0001 34.2274C35.1449 34.2274 44.1796 29.6487 44.1796 24.0004C44.1796 18.3522 35.1449 13.7734 24.0001 13.7734C12.8552 13.7734 3.82056 18.3522 3.82056 24.0004C3.82056 29.6487 12.8552 34.2274 24.0001 34.2274Z" fill="#6280B6"/>
<path d="M28.0876 27.2998L29.0881 22.1488C29.2306 21.7079 29.2541 21.2373 29.1561 20.7844C29.0581 20.3316 28.8422 19.9127 28.5301 19.5703C27.6591 18.9518 26.5926 18.6718 25.5301 18.7828H23.8006L24.2971 16.2328C24.3062 16.1853 24.3046 16.1364 24.2926 16.0896C24.2806 16.0428 24.2584 15.9992 24.2276 15.9619C24.1968 15.9247 24.1581 15.8947 24.1144 15.8741C24.0707 15.8535 24.0229 15.8428 23.9746 15.8428H21.5746C21.4984 15.8428 21.4246 15.8692 21.3657 15.9177C21.3069 15.9661 21.2667 16.0335 21.2521 16.1083L20.1886 21.5773C20.1068 20.9925 19.8584 20.4437 19.4731 19.9963C19.0442 19.5667 18.5267 19.2358 17.9567 19.0268C17.3868 18.8177 16.7781 18.7355 16.1731 18.7858H11.5501C11.4739 18.7858 11.4001 18.8122 11.3412 18.8607C11.2824 18.9091 11.2422 18.9765 11.2276 19.0513L9.07661 30.1213C9.06756 30.1688 9.0691 30.2176 9.08112 30.2645C9.09314 30.3113 9.11534 30.3549 9.14614 30.3921C9.17695 30.4294 9.21559 30.4594 9.25931 30.48C9.30304 30.5006 9.35077 30.5112 9.39911 30.5113H11.8036C11.8798 30.5113 11.9537 30.4848 12.0125 30.4364C12.0713 30.3879 12.1115 30.3206 12.1261 30.2458L12.6466 27.5683H14.4466C15.2414 27.5895 16.0346 27.4883 16.7986 27.2683C17.4428 27.0551 18.0318 26.7022 18.5236 26.2348C18.9266 25.8677 19.2707 25.4407 19.5436 24.9688L19.1131 27.1813C19.1041 27.2288 19.1056 27.2776 19.1176 27.3245C19.1296 27.3713 19.1518 27.4149 19.1826 27.4521C19.2134 27.4894 19.2521 27.5194 19.2958 27.54C19.3395 27.5606 19.3873 27.5712 19.4356 27.5713H21.8356C21.9118 27.5713 21.9857 27.5448 22.0445 27.4964C22.1033 27.448 22.1435 27.3806 22.1581 27.3058L23.3386 21.2293H24.9796C25.6786 21.2293 25.8796 21.3688 25.9396 21.4288C25.9996 21.4888 26.0896 21.6763 25.9771 22.2823L25.0246 27.1798C25.0156 27.2273 25.0171 27.2761 25.0291 27.323C25.0411 27.3698 25.0633 27.4134 25.0941 27.4506C25.1249 27.4879 25.1636 27.5179 25.2073 27.5385C25.251 27.559 25.2988 27.5697 25.3471 27.5698H27.7771C27.8519 27.5669 27.9234 27.5385 27.9799 27.4894C28.0363 27.4403 28.0743 27.3734 28.0876 27.2998ZM16.9951 23.0488C16.9217 23.6785 16.6228 24.2604 16.1536 24.6868C15.5642 25.0534 14.8731 25.2221 14.1811 25.1683H13.1131L13.8856 21.1918H15.2671C16.2826 21.1918 16.6906 21.4093 16.8556 21.5908C16.9815 21.8098 17.059 22.0532 17.0831 22.3047C17.1072 22.5561 17.0772 22.8099 16.9951 23.0488ZM38.3191 19.9978C37.8902 19.5682 37.3727 19.2373 36.8027 19.0283C36.2328 18.8192 35.6241 18.737 35.0191 18.7873H30.3826C30.3064 18.7872 30.2326 18.8137 30.1737 18.8622C30.1149 18.9106 30.0747 18.978 30.0601 19.0528L27.9091 30.1228C27.9001 30.1703 27.9016 30.2191 27.9136 30.266C27.9256 30.3128 27.9478 30.3564 27.9786 30.3936C28.0094 30.4309 28.0481 30.4609 28.0918 30.4815C28.1355 30.5021 28.1833 30.5127 28.2316 30.5128H30.6436C30.7198 30.5128 30.7937 30.4863 30.8525 30.4379C30.9113 30.3895 30.9515 30.3221 30.9661 30.2473L31.4866 27.5698H33.2866C34.0814 27.591 34.8746 27.4898 35.6386 27.2698C36.2828 27.0566 36.8718 26.7037 37.3636 26.2363C38.2058 25.4773 38.7733 24.461 38.9776 23.3458C39.139 22.7753 39.1635 22.1747 39.049 21.593C38.9346 21.0112 38.6845 20.4647 38.3191 19.9978ZM35.8186 23.0488C35.7452 23.6785 35.4463 24.2604 34.9771 24.6868C34.3863 25.0538 33.6935 25.222 33.0001 25.1668H31.9351L32.7076 21.1903H34.0891C35.1046 21.1903 35.5126 21.4078 35.6776 21.5893C35.8039 21.8084 35.8819 22.052 35.9062 22.3038C35.9305 22.5555 35.9007 22.8095 35.8186 23.0488Z" fill="white"/>
<path d="M15.2671 20.8619C15.5907 20.8211 15.9192 20.8449 16.2336 20.932C16.548 21.019 16.842 21.1675 17.0986 21.3689C17.2642 21.6238 17.3698 21.913 17.4075 22.2146C17.4451 22.5163 17.4139 22.8225 17.3161 23.1104C17.2304 23.8191 16.8877 24.4718 16.3531 24.9449C15.7083 25.3602 14.9461 25.5549 14.1811 25.4999H12.7141L13.6141 20.8664L15.2671 20.8619ZM9.3916 30.1859H11.8036L12.3751 27.2429H14.4406C15.2009 27.2636 15.9598 27.167 16.6906 26.9564C17.2904 26.7583 17.8386 26.4294 18.2956 25.9934C19.0866 25.2818 19.6194 24.328 19.8106 23.2814C19.962 22.7609 19.9886 22.212 19.8882 21.6793C19.7879 21.1467 19.5635 20.6451 19.2331 20.2154C18.8348 19.8214 18.3553 19.519 17.8281 19.3294C17.3009 19.1397 16.7386 19.0674 16.1806 19.1174H11.5501L9.3916 30.1859ZM21.5806 16.1729H23.9806L23.4001 19.1159H25.5316C26.5106 19.0134 27.4941 19.2622 28.3066 19.8179C28.5755 20.1235 28.7593 20.4945 28.8396 20.8936C28.9199 21.2928 28.8939 21.706 28.7641 22.0919L27.7636 27.2429H25.3351L26.2876 22.3454C26.3539 22.1584 26.3776 21.959 26.3568 21.7617C26.3361 21.5645 26.2714 21.3744 26.1676 21.2054C25.8202 20.9565 25.3912 20.8493 24.9676 20.9054H23.0551L21.8221 27.2474H19.4221L21.5806 16.1729ZM34.0906 20.8619C34.4142 20.8211 34.7427 20.8449 35.0571 20.932C35.3715 21.019 35.6655 21.1675 35.9221 21.3689C36.0877 21.6238 36.1933 21.913 36.231 22.2146C36.2686 22.5163 36.2374 22.8225 36.1396 23.1104C36.0539 23.8191 35.7112 24.4718 35.1766 24.9449C34.5305 25.3611 33.7666 25.5559 33.0001 25.4999H31.5331L32.4331 20.8664L34.0906 20.8619ZM28.2151 30.1859H30.6271L31.1986 27.2429H33.2641C34.0244 27.2636 34.7833 27.167 35.5141 26.9564C36.1139 26.7583 36.6621 26.4294 37.1191 25.9934C37.9101 25.2818 38.4429 24.328 38.6341 23.2814C38.7855 22.7609 38.8121 22.212 38.7117 21.6793C38.6114 21.1467 38.387 20.6451 38.0566 20.2154C37.6583 19.8214 37.1788 19.519 36.6516 19.3294C36.1244 19.1397 35.5621 19.0674 35.0041 19.1174H30.3661L28.2151 30.1859Z" fill="#000004"/>
<defs>
<radialGradient id="paint0_radial_644_6" cx="0" cy="0" r="1" gradientUnits="userSpaceOnUse" gradientTransform="translate(15.609 16.8371) scale(27.576)">
<stop stop-color="white"/>
<stop offset="0.5" stop-color="#4C6B96"/>
<stop offset="1" stop-color="#231F20"/>
</radialGradient>
</defs>
</svg>
