<svg width="48" height="48" viewBox="0 0 48 48" fill="none" xmlns="http://www.w3.org/2000/svg">
<g clip-path="url(#clip0_646_2)">
<path d="M45.8993 19.1322H30.6007C30.3486 19.1338 30.0986 19.0853 29.8653 18.9896C29.6321 18.8938 29.4201 18.7527 29.2418 18.5744C29.0635 18.396 28.9224 18.1841 28.8266 17.9508C28.7308 17.7175 28.6823 17.4676 28.6839 17.2154V1.91705C28.684 1.66587 28.6343 1.41717 28.5378 1.18526C28.4414 0.953344 28.3 0.742798 28.1218 0.565737C27.9437 0.388676 27.7323 0.248598 27.4998 0.153563C27.2673 0.0585287 27.0183 0.0104149 26.7671 0.0119911H21.0407C20.7895 0.0103902 20.5405 0.0584857 20.308 0.153509C20.0755 0.248533 19.864 0.388607 19.6858 0.56567C19.5077 0.742734 19.3663 0.953288 19.2698 1.18521C19.1733 1.41714 19.1237 1.66586 19.1237 1.91705V17.2154C19.1253 17.4676 19.0768 17.7175 18.981 17.9508C18.8853 18.1841 18.7441 18.396 18.5658 18.5744C18.3875 18.7527 18.1756 18.8938 17.9423 18.9896C17.709 19.0853 17.459 19.1338 17.2069 19.1322H11.4805C11.2283 19.1338 10.9784 19.0853 10.7451 18.9896C10.5118 18.8938 10.2999 18.7527 10.1216 18.5744C9.94325 18.396 9.80212 18.1841 9.70635 17.9508C9.61058 17.7175 9.56208 17.4676 9.56367 17.2154V1.91705C9.56528 1.66487 9.51681 1.41488 9.42105 1.18158C9.32529 0.948283 9.18417 0.73632 9.00585 0.55799C8.82754 0.379659 8.61559 0.23851 8.3823 0.142731C8.14901 0.0469525 7.89903 -0.00154989 7.64685 3.77526e-05H1.90833C1.65717 5.75848e-05 1.4085 0.0497387 1.17662 0.146223C0.94474 0.242707 0.734226 0.38409 0.55719 0.562236C0.380154 0.740383 0.240091 0.951778 0.14506 1.18426C0.0500279 1.41674 0.00190329 1.66571 0.00345454 1.91686V45.9078C0.00189222 46.16 0.0504057 46.4099 0.146182 46.6432C0.241958 46.8765 0.383091 47.0884 0.561397 47.2667C0.739702 47.445 0.951633 47.5862 1.1849 47.6819C1.41816 47.7777 1.66812 47.8262 1.92028 47.8247H45.8991C46.1513 47.8262 46.4013 47.7778 46.6346 47.682C46.8678 47.5862 47.0798 47.4451 47.2581 47.2668C47.4364 47.0885 47.5776 46.8765 47.6734 46.6433C47.7692 46.41 47.8177 46.16 47.8161 45.9078V21.0851C47.8226 20.8299 47.7776 20.5761 47.6841 20.3386C47.5905 20.1011 47.4501 19.8849 47.2713 19.7027C47.0925 19.5206 46.8789 19.3762 46.6432 19.2782C46.4075 19.1802 46.1545 19.1306 45.8993 19.1322ZM38.2081 35.3773C38.2096 35.7543 38.1367 36.1279 37.9935 36.4767C37.8503 36.8254 37.6397 37.1425 37.3737 37.4096C37.1076 37.6767 36.7915 37.8887 36.4433 38.0334C36.0952 38.178 35.7219 38.2525 35.3449 38.2525H31.5113C31.1342 38.2525 30.7609 38.178 30.4128 38.0334C30.0646 37.8888 29.7485 37.6768 29.4824 37.4097C29.2164 37.1425 29.0058 36.8255 28.8626 36.4767C28.7194 36.128 28.6465 35.7543 28.6481 35.3773V31.5556C28.6465 31.1786 28.7194 30.8051 28.8626 30.4563C29.0058 30.1076 29.2165 29.7905 29.4825 29.5234C29.7485 29.2563 30.0647 29.0443 30.4128 28.8996C30.761 28.755 31.1343 28.6805 31.5113 28.6805H35.3447C35.7217 28.6805 36.095 28.755 36.4432 28.8996C36.7913 29.0442 37.1075 29.2562 37.3735 29.5233C37.6396 29.7905 37.8502 30.1075 37.9934 30.4563C38.1366 30.805 38.2095 31.1786 38.2079 31.5556V35.3773H38.2081Z" fill="#FF6600"/>
</g>
<defs>
<clipPath id="clip0_646_2">
<rect width="47.82" height="48" fill="white"/>
</clipPath>
</defs>
</svg>
