<svg width="47" height="48" viewBox="0 0 47 48" fill="none" xmlns="http://www.w3.org/2000/svg">
<g clip-path="url(#clip0_645_11)">
<path d="M46.3674 28.743C46.0884 27.8978 45.3573 27.309 44.4118 27.1678C43.966 27.1012 43.4554 27.1296 42.8513 27.2541C41.7982 27.4714 41.0169 27.5541 40.4467 27.5701C42.5989 23.9365 44.3489 19.7929 45.3564 15.8923C46.9854 9.58523 46.1149 6.71196 45.0976 5.41232C42.4054 1.97232 38.4776 0.124321 33.7391 0.0677753C31.2113 0.0368662 28.9922 0.535957 27.8345 0.894866C26.7567 0.704684 25.5978 0.598503 24.3818 0.578866C22.1024 0.542503 20.0884 1.03941 18.3674 2.06068C17.4147 1.7385 15.8856 1.28432 14.1198 0.994503C9.96672 0.312684 6.61944 0.843957 4.17108 2.57359C1.20635 4.66778 -0.168013 8.30632 0.086169 13.3881C0.166896 15.0016 1.06944 19.9107 2.49053 24.5663C3.30726 27.2423 4.17817 29.4645 5.07908 31.1718C6.35671 33.5927 7.72381 35.0183 9.25853 35.5303C10.1187 35.8169 11.6816 36.0176 13.3254 34.6485C13.5338 34.9009 13.8118 35.1516 14.1807 35.3845C14.6493 35.68 15.2222 35.9214 15.7944 36.0645C17.8564 36.58 19.7878 36.451 21.4356 35.7285C21.4458 36.0216 21.4536 36.3016 21.4602 36.5434C21.4711 36.9356 21.482 37.3201 21.4964 37.6798C21.594 40.1114 21.7594 42.0021 22.2496 43.325C22.2765 43.3978 22.3127 43.5087 22.3509 43.6263C22.5954 44.375 23.0044 45.6285 24.0447 46.6101C25.122 47.6271 26.4251 47.9389 27.6185 47.9389C28.2171 47.9389 28.7882 47.8603 29.2891 47.753C31.0745 47.3703 33.1024 46.7874 34.5693 44.6987C35.9562 42.7241 36.6304 39.7501 36.7524 35.0641C36.7682 34.9316 36.7827 34.8051 36.7967 34.6845L36.8258 34.4369L37.1525 34.4656L37.2367 34.4712C39.0553 34.5541 41.2789 34.1685 42.6445 33.5341C43.7236 33.0334 47.1816 31.2078 46.3674 28.743Z" fill="black"/>
<path d="M43.2579 29.2222C37.8506 30.3377 37.4788 28.507 37.4788 28.507C43.1879 20.0355 45.5746 9.28224 43.5152 6.65042C37.8963 -0.52867 28.1699 2.8666 28.0075 2.9546L27.9553 2.96406C26.887 2.74224 25.6915 2.61024 24.3477 2.58824C21.9012 2.54824 20.0452 3.22969 18.6368 4.29769C18.6368 4.29769 1.28589 -2.85031 2.09298 13.2875C2.26462 16.7206 7.01371 39.2644 12.6781 32.4552C14.7484 29.9652 16.749 27.8599 16.749 27.8599C17.7424 28.5199 18.9319 28.8566 20.1788 28.7357L20.2757 28.6535C20.2455 28.9626 20.2593 29.265 20.3144 29.623C18.8552 31.2533 19.2841 31.5395 16.367 32.1401C13.4152 32.7484 15.1492 33.8313 16.2813 34.1146C17.6539 34.4577 20.8292 34.9439 22.9746 31.9404L22.8892 32.2832C23.4608 32.7412 23.8623 35.2619 23.795 37.5472C23.7277 39.8322 23.6828 41.4012 24.1332 42.6266C24.5839 43.8521 25.0328 46.6093 28.8677 45.7877C32.0719 45.101 33.7324 43.3215 33.9635 40.3532C34.1273 38.243 34.4984 38.555 34.5217 36.6682L34.8193 35.7752C35.1624 32.9146 34.8739 31.9917 36.8479 32.421L37.3279 32.4631C38.7806 32.5291 40.6824 32.2293 41.7986 31.7106C44.2019 30.5953 45.6273 28.733 43.2575 29.2222H43.2579Z" fill="#336791"/>
<path d="M19.6524 14.8229C19.1651 14.7551 18.7238 14.8178 18.5006 14.9869C18.3751 15.082 18.3362 15.1922 18.3256 15.268C18.2976 15.4689 18.4384 15.6911 18.5249 15.8056C18.7696 16.13 19.1271 16.3529 19.4809 16.402C19.5322 16.4093 19.5833 16.4125 19.634 16.4125C20.224 16.4125 20.7606 15.9531 20.8078 15.614C20.8669 15.1893 20.2504 14.906 19.6524 14.8229ZM35.7949 14.8364C35.7484 14.5034 35.156 14.4085 34.5938 14.4867C34.0324 14.5649 33.488 14.8184 33.5335 15.152C33.5698 15.4114 34.0384 15.8544 34.5929 15.8544C34.6398 15.8544 34.6871 15.8513 34.7347 15.8445C35.1049 15.7933 35.3766 15.5582 35.5056 15.4227C35.702 15.2162 35.8158 14.986 35.7949 14.8364Z" fill="white"/>
<path d="M45.0572 29.0958C44.851 28.4724 44.1874 28.2718 43.0848 28.4995C39.8112 29.1751 38.6388 28.7071 38.2539 28.4236C40.7985 24.5473 42.8918 19.8615 44.021 15.4896C44.5559 13.4187 44.8514 11.4955 44.8756 9.92782C44.9023 8.20728 44.6092 6.94291 44.0048 6.17055C41.5681 3.05691 37.9918 1.38673 33.6627 1.34091C30.6865 1.30746 28.1719 2.06909 27.6845 2.28328C26.6579 2.028 25.5388 1.87128 24.3205 1.85128C22.0863 1.81509 20.155 2.35 18.5561 3.44037C17.8616 3.18182 16.0667 2.56564 13.8716 2.212C10.0767 1.60109 7.06102 2.064 4.90902 3.58855C2.34121 5.40782 1.15575 8.65982 1.38539 13.254C1.46266 14.7996 2.34339 19.5545 3.73321 24.1082C5.56266 30.1016 7.55139 33.4946 9.64375 34.1926C9.88866 34.2742 10.171 34.3313 10.4825 34.3313C11.2458 34.3313 12.1816 33.9873 13.1552 32.8167C14.3428 31.3921 15.5712 30.0021 16.839 28.6484C17.6616 29.0898 18.5652 29.3364 19.4894 29.3611C19.4912 29.3853 19.4936 29.4095 19.4958 29.4335C19.3367 29.6232 19.1809 29.8156 19.0285 30.0107C18.3881 30.8236 18.2548 30.9929 16.1936 31.4173C15.6072 31.5384 14.0499 31.8593 14.027 32.9509C14.0023 34.1436 15.8679 34.6446 16.0805 34.6976C16.8212 34.8831 17.5348 34.9745 18.2154 34.9745C19.8705 34.9745 21.327 34.4305 22.491 33.378C22.4552 37.63 22.6325 41.8198 23.143 43.0964C23.5612 44.1415 24.5827 46.6955 27.8092 46.6953C28.2827 46.6953 28.8038 46.6402 29.377 46.5173C32.7445 45.7955 34.2068 44.3071 34.7725 41.0258C35.0752 39.2722 35.5947 35.0847 35.839 32.8385C36.3547 32.9995 37.0185 33.0731 37.7361 33.0729C39.2328 33.0729 40.9599 32.7549 42.043 32.2522C43.2598 31.6871 45.4554 30.3005 45.0572 29.0958ZM37.0379 13.9176C37.0268 14.5807 36.9356 15.1827 36.8388 15.8111C36.7347 16.4869 36.627 17.1856 36.5999 18.0338C36.5732 18.8593 36.6763 19.7175 36.7759 20.5475C36.9774 22.2238 37.1841 23.9496 36.3839 25.6525C36.251 25.417 36.1326 25.1736 36.0294 24.9236C35.9299 24.6825 35.7139 24.2953 35.4148 23.7593C34.2514 21.6727 31.5268 16.7865 32.9216 14.7927C33.337 14.1993 34.3914 13.5891 37.0379 13.9176ZM33.8299 2.68364C37.7088 2.76928 40.7772 4.22037 42.9496 6.99637C44.6158 9.12564 42.781 18.8142 37.4696 27.1725C37.4162 27.1046 37.3625 27.0369 37.3085 26.9695L37.2412 26.8855C38.6138 24.6187 38.3454 22.376 38.1065 20.3876C38.0083 19.5716 37.9156 18.8009 37.9392 18.0769C37.9636 17.3096 38.065 16.6515 38.1632 16.0151C38.2838 15.2309 38.4065 14.4195 38.3727 13.4629C38.3979 13.3625 38.4081 13.244 38.3948 13.1033C38.3085 12.186 37.2612 9.44073 35.1267 6.956C33.959 5.59691 32.2563 4.076 29.9314 3.05019C30.9314 2.84291 32.2988 2.64964 33.8299 2.68364ZM12.1248 31.96C11.0521 33.2498 10.3114 33.0025 10.0678 32.9215C8.48048 32.392 6.63866 29.0371 5.01484 23.7171C3.60975 19.1138 2.78866 14.4849 2.72357 13.1869C2.51848 9.08182 3.51357 6.22091 5.68139 4.68346C9.20939 2.18164 15.0098 3.67909 17.3405 4.43855C17.307 4.47164 17.2721 4.50255 17.239 4.53619C13.4143 8.39873 13.505 14.998 13.5145 15.4015C13.5141 15.5571 13.5272 15.7775 13.545 16.0805C13.6108 17.1905 13.7334 19.2564 13.4061 21.5958C13.1021 23.7698 13.7723 25.8976 15.2445 27.4338C15.3956 27.5912 15.5544 27.7409 15.7203 27.8825C15.065 28.5844 13.6408 30.1364 12.1248 31.96ZM16.2119 26.5067C15.0254 25.2685 14.4865 23.5464 14.7332 21.7813C15.0787 19.31 14.9512 17.1576 14.8827 16.0013C14.873 15.8395 14.8645 15.6976 14.8596 15.5858C15.4183 15.0904 18.0076 13.7031 19.8541 14.1262C20.6967 14.3191 21.2101 14.8929 21.4236 15.8798C22.5283 20.9895 21.5698 23.1191 20.7996 24.8305C20.6408 25.1831 20.4908 25.5164 20.3628 25.8611L20.2636 26.1276C20.0123 26.8015 19.7785 27.428 19.6336 28.0229C18.3721 28.0193 17.145 27.4804 16.2119 26.5065V26.5067ZM16.4056 33.3976C16.0372 33.3056 15.7059 33.1458 15.5116 33.0133C15.6739 32.9369 15.9628 32.8329 16.4639 32.7296C18.8888 32.2305 19.2634 31.8782 20.0812 30.8398C20.2687 30.6016 20.4812 30.3318 20.7756 30.0031L20.7759 30.0027C21.2143 29.5118 21.4148 29.5951 21.7785 29.746C22.0732 29.8678 22.3603 30.2373 22.4767 30.6438C22.5318 30.8358 22.5936 31.2002 22.3912 31.4838C20.6828 33.8758 18.1934 33.8451 16.4056 33.3976ZM29.0963 45.2071C26.1298 45.8427 25.0794 44.3291 24.3872 42.5987C23.9405 41.4816 23.7208 36.4442 23.8767 30.8811C23.8787 30.8071 23.8681 30.7356 23.8478 30.6684C23.8295 30.5355 23.8018 30.4042 23.7648 30.2753C23.5332 29.4658 22.9687 28.7887 22.2914 28.508C22.0223 28.3966 21.5285 28.192 20.935 28.3438C21.0616 27.8224 21.281 27.2335 21.519 26.5958L21.6188 26.3276C21.7312 26.0253 21.8723 25.712 22.0214 25.3804C22.8274 23.5898 23.9312 21.1373 22.7332 15.5967C22.2845 13.5215 20.7859 12.508 18.5143 12.7435C17.1525 12.8844 15.9065 13.4338 15.285 13.7489C15.1514 13.8165 15.0292 13.882 14.915 13.9456C15.0885 11.8547 15.7438 7.94709 18.195 5.47473C19.7385 3.91837 21.7939 3.14964 24.2983 3.19109C29.2328 3.27182 32.3972 5.80419 34.183 7.91455C35.7219 9.73291 36.5552 11.5647 36.8878 12.5527C34.3868 12.2984 32.6859 12.792 31.8238 14.0247C29.9479 16.7062 32.8499 21.9105 34.2447 24.4118C34.5005 24.8702 34.7212 25.2664 34.7907 25.4347C35.2448 26.5355 35.8328 27.2704 36.2621 27.8067C36.3938 27.9711 36.5214 28.1305 36.6185 28.2698C35.861 28.4882 34.5005 28.9927 34.6245 31.5147C34.5245 32.7802 33.8134 38.7049 33.4521 40.7982C32.9752 43.5636 31.9576 44.5936 29.0963 45.2073V45.2071ZM41.4788 31.0369C40.7043 31.3964 39.4081 31.666 38.1768 31.724C36.8168 31.7876 36.1245 31.5716 35.9616 31.4387C35.8852 29.8671 36.4701 29.7029 37.0892 29.5291C37.1865 29.5018 37.2814 29.4751 37.373 29.4431C37.4299 29.4895 37.4923 29.5355 37.5607 29.5805C38.6538 30.302 40.6034 30.3798 43.3559 29.8116L43.3861 29.8056C43.0148 30.1527 42.3796 30.6185 41.4788 31.0369Z" fill="white"/>
</g>
<defs>
<clipPath id="clip0_645_11">
<rect width="46.55" height="48" fill="white"/>
</clipPath>
</defs>
</svg>
