<svg width="48" height="48" viewBox="0 0 48 48" fill="none" xmlns="http://www.w3.org/2000/svg">
<path d="M24 45C23.4334 45.0002 22.8767 44.8512 22.386 44.568L17.25 41.5275C16.4835 41.0985 16.857 40.947 17.1105 40.8585C17.9257 40.6067 18.7062 40.2539 19.434 39.8085C19.4949 39.7803 19.562 39.7682 19.6289 39.7732C19.6958 39.7781 19.7604 39.8001 19.8165 39.837L23.763 42.1815C23.8364 42.2204 23.9183 42.2407 24.0015 42.2407C24.0846 42.2407 24.1665 42.2204 24.24 42.1815L39.63 33.2985C39.702 33.2554 39.7615 33.1943 39.8028 33.1212C39.8441 33.0481 39.8657 32.9655 39.8655 32.8815V15.1125C39.8655 15.0272 39.8436 14.9434 39.8018 14.869C39.76 14.7947 39.6998 14.7323 39.627 14.688L24.237 5.81253C24.1644 5.77165 24.0825 5.75018 23.9992 5.75018C23.9159 5.75018 23.834 5.77165 23.7615 5.81253L8.38045 14.691C8.30708 14.7344 8.24617 14.796 8.20359 14.8699C8.16102 14.9437 8.13824 15.0273 8.13745 15.1125V32.874C8.13766 32.9578 8.16014 33.04 8.20257 33.1122C8.24501 33.1844 8.30588 33.2441 8.37895 33.285L12.6 35.721C14.8875 36.864 16.2885 35.517 16.2885 34.164V16.6275C16.2885 16.5082 16.3359 16.3937 16.4203 16.3093C16.5046 16.2249 16.6191 16.1775 16.7385 16.1775H18.6885C18.8078 16.1775 18.9223 16.2249 19.0066 16.3093C19.091 16.3937 19.1385 16.5082 19.1385 16.6275V34.1655C19.1385 37.218 17.4765 38.9655 14.5815 38.9655C13.3325 38.9873 12.1032 38.6533 11.037 38.0025L6.99145 35.682C6.50033 35.396 6.09283 34.9862 5.80961 34.4935C5.5264 34.0007 5.37739 33.4424 5.37745 32.874V15.1125C5.37599 14.5433 5.52437 13.9838 5.80769 13.4901C6.091 12.9964 6.49926 12.5859 6.99145 12.3L22.383 3.41403C22.8787 3.14278 23.4348 3.00061 24 3.00061C24.5651 3.00061 25.1212 3.14278 25.617 3.41403L41.007 12.3C41.498 12.5855 41.9056 12.9947 42.1891 13.4869C42.4726 13.9791 42.622 14.537 42.6225 15.105V32.874C42.6216 33.4423 42.4721 34.0006 42.1886 34.4932C41.9052 34.9858 41.4978 35.3956 41.007 35.682L25.617 44.568C25.1253 44.8517 24.5676 45.0007 24 45Z" fill="#83CD29"/>
<path d="M21.0811 26.9296C21.0811 26.8102 21.1285 26.6957 21.2129 26.6114C21.2972 26.527 21.4117 26.4796 21.5311 26.4796H23.5216C23.6279 26.4799 23.7307 26.5179 23.8117 26.5868C23.8927 26.6557 23.9467 26.7511 23.9641 26.8561C24.2641 28.8826 25.1641 29.9041 29.2336 29.9041C32.4751 29.9041 33.8566 29.1706 33.8566 27.4501C33.8566 26.4586 33.4651 25.7221 28.4266 25.2286C24.2146 24.8116 21.6106 23.8786 21.6106 20.5126C21.6106 17.4076 24.2281 15.5551 28.6156 15.5551C33.5461 15.5551 35.9866 17.2666 36.2956 20.9386C36.3003 20.9999 36.2924 21.0615 36.2724 21.1196C36.2523 21.1777 36.2206 21.2312 36.1792 21.2766C36.1377 21.322 36.0874 21.3584 36.0313 21.3836C35.9752 21.4088 35.9145 21.4222 35.8531 21.4231H33.8491C33.7485 21.4216 33.6514 21.3866 33.5731 21.3235C33.4948 21.2605 33.4398 21.173 33.4171 21.0751C32.9386 18.9436 31.7671 18.2626 28.6171 18.2626C25.0771 18.2626 24.6661 19.4956 24.6661 20.4196C24.6661 21.5386 25.1521 21.8656 29.9311 22.4971C34.6606 23.1226 36.9076 24.0076 36.9076 27.3316C36.9076 30.6856 34.1116 32.6056 29.2351 32.6056C22.4926 32.6146 21.0811 29.5231 21.0811 26.9296Z" fill="#83CD29"/>
</svg>
